<?xml version="1.0" encoding="UTF-8"?>
<svg xmlns="http://www.w3.org/2000/svg" viewBox="0 0 5000 500">
    <g id="Grit-Parts">
    <path transform="scale(0.5950181280972016 1.0479606242361408) rotate(18.343831421814542 3846.7693456955 327.0186627302142) translate(3846.7693456955,327.0186627302142)" d="M3.238,4 C3.619,4 4,3 4,2 L4,0 L1.905,0 L0,0 L1.143,2 C1.714,3 2.667,4 3.238,4 Z" fill="rgba(255,255,255,0.7647687316164757)"/><path transform="scale(1.8558484081704476 0.8839498545674224) rotate(184.12790426024478 3303.0240184194117 281.25941633656015) translate(3303.0240184194117,281.25941633656015)" d="M10,5.949 L10,3.077 L10,0 L8.2,0 C7.4,0 6.6,1.026 6.6,2.256 L6.6,4.513 L3.4,3.282 L0,2.051 L2.4,4.923 L4.8,8 L7.4,6.974 L10,5.949 Z" fill="rgba(255,255,255,0.3404462546468616)"/><path transform="scale(0.6472737614714945 0.96673118808303) rotate(291.83144750324925 670.2503849967245 333.51343118201373) translate(670.2503849967245,333.51343118201373)" d="M2.391,3.48892289 C3.913,2.62492289 5,1.54592289 5,0.89792289 C5,-0.82807711 3.043,0.03492289 1.522,2.62492289 L0,4.99992289 L2.391,3.48892289 Z" fill="rgba(255,255,255,0.8204182975432286)"/><path transform="scale(0.539304910014879 1.0584963556851954) rotate(300.45515505006273 1833.3947196385536 325.04887359827893) translate(1833.3947196385536,325.04887359827893)" d="M0,5 L1.615,3.846 L3,2.5 L1.615,1.154 L0,0 L0,2.5 Z" fill="rgba(255,255,255,0.05663439455513597)"/><path transform="scale(1.7097229425643699 1.2934419345954336) rotate(201.5561102453091 1998.9854464978562 314.4628873924339) translate(1998.9854464978562,314.4628873924339)" d="M1,2 C1.6,2 2,1.6 2,1 C2,0.4 1.6,0 1,0 C0.4,0 0,0.4 0,1 C0,1.6 0.4,2 1,2 Z" fill="rgba(255,255,255,0.28859875721664063)"/><path transform="scale(1.7527569297808807 1.7122991186553285) rotate(284.2261712793968 1435.1982294063948 42.2633339708226) translate(1435.1982294063948,42.2633339708226)" d="M2.391,3.48892289 C3.913,2.62492289 5,1.54592289 5,0.89792289 C5,-0.82807711 3.043,0.03492289 1.522,2.62492289 L0,4.99992289 L2.391,3.48892289 Z" fill="rgba(255,255,255,0.6352554825258829)"/><path transform="scale(0.9757974909699109 1.2933236246746662) rotate(283.0708603559226 3427.3370271137705 287.8206145323332) translate(3427.3370271137705,287.8206145323332)" d="M2.5,3 L3.846,1.615 L5,0 L2.5,0 L0,0 L1.154,1.615 Z" fill="rgba(255,255,255,0.6367680938009195)"/><path transform="scale(1.0292146733573047 0.7590794695393213) rotate(262.0095833756012 3481.443874678526 59.26567674473782) translate(3481.443874678526,59.26567674473782)" d="M2.391,3.48892289 C3.913,2.62492289 5,1.54592289 5,0.89792289 C5,-0.82807711 3.043,0.03492289 1.522,2.62492289 L0,4.99992289 L2.391,3.48892289 Z" fill="rgba(255,255,255,0.9931086455138802)"/><path transform="scale(0.9446681212871995 0.5335665079572355) rotate(111.67001744255724 4347.642222761376 396.44270631804613) translate(4347.642222761376,396.44270631804613)" d="M10,5.949 L10,3.077 L10,0 L8.2,0 C7.4,0 6.6,1.026 6.6,2.256 L6.6,4.513 L3.4,3.282 L0,2.051 L2.4,4.923 L4.8,8 L7.4,6.974 L10,5.949 Z" fill="rgba(255,255,255,0.8037773937315478)"/><path transform="scale(1.7800211533597556 1.6417056524418907) rotate(164.0370979232845 4953.428980357633 237.04542429898322) translate(4953.428980357633,237.04542429898322)" d="M2.391,3.48892289 C3.913,2.62492289 5,1.54592289 5,0.89792289 C5,-0.82807711 3.043,0.03492289 1.522,2.62492289 L0,4.99992289 L2.391,3.48892289 Z" fill="rgba(255,255,255,0.05370428096313917)"/><path transform="scale(1.6372589094759071 1.6388468763254247) rotate(274.2490380587623 1570.0912800786882 172.07014695092482) translate(1570.0912800786882,172.07014695092482)" d="M10,5.949 L10,3.077 L10,0 L8.2,0 C7.4,0 6.6,1.026 6.6,2.256 L6.6,4.513 L3.4,3.282 L0,2.051 L2.4,4.923 L4.8,8 L7.4,6.974 L10,5.949 Z" fill="rgba(255,255,255,0.9559596501142658)"/><path transform="scale(1.7332079730817211 1.749500334893426) rotate(237.12181178005105 1787.7044442043311 159.08902843717686) translate(1787.7044442043311,159.08902843717686)" d="M3,9 L5,7.085 L7,5.17 L6,2.489 L5,0 L4.8,3.447 L4.6,6.894 L2.2,5.553 L0,4.213 L1.6,6.511 Z" fill="rgba(255,255,255,0.38269055307903344)"/><path transform="scale(1.391039793775351 1.7815917101249963) rotate(190.21478632767594 1167.3924970168214 35.5326105020759) translate(1167.3924970168214,35.5326105020759)" d="M0,5 L1.615,3.846 L3,2.5 L1.615,1.154 L0,0 L0,2.5 Z" fill="rgba(255,255,255,0.691751872627909)"/><path transform="scale(1.793557213591065 0.7990030147173385) rotate(359.63925638098823 2431.1051931949114 441.6244140471797) translate(2431.1051931949114,441.6244140471797)" d="M3,9 L5,7.085 L7,5.17 L6,2.489 L5,0 L4.8,3.447 L4.6,6.894 L2.2,5.553 L0,4.213 L1.6,6.511 Z" fill="rgba(255,255,255,0.5981446113521671)"/><path transform="scale(1.9183875518481472 1.2661527348334103) rotate(237.01556017833937 1194.3402481547039 412.3599806689504) translate(1194.3402481547039,412.3599806689504)" d="M3.238,4 C3.619,4 4,3 4,2 L4,0 L1.905,0 L0,0 L1.143,2 C1.714,3 2.667,4 3.238,4 Z" fill="rgba(255,255,255,0.8174223509104019)"/><path transform="scale(0.5355473590040079 0.8181837276354385) rotate(217.37873556163322 2092.494032687 156.78667513396317) translate(2092.494032687,156.78667513396317)" d="M1,2 C1.6,2 2,1.6 2,1 C2,0.4 1.6,0 1,0 C0.4,0 0,0.4 0,1 C0,1.6 0.4,2 1,2 Z" fill="rgba(255,255,255,0.08512718025169064)"/><path transform="scale(1.8027245226061495 0.8680276212876316) rotate(276.1686148636504 282.0140855689945 127.52177448423029) translate(282.0140855689945,127.52177448423029)" d="M4,6 L2.8,3.077 C1.4,-0.429 0,-1.014 0,1.713 C0,2.882 0.8,4.246 2,4.831 L4,6 Z" fill="rgba(255,255,255,0.080566323943841)"/><path transform="scale(1.0290289963801547 0.5519966375138434) rotate(347.265843295357 4251.88858745462 45.483938043990534) translate(4251.88858745462,45.483938043990534)" d="M2.857,4 C4.381,4 6.286,3 6.857,2 L8,0 L5.143,0 C3.619,0 1.714,0.8 1.143,2 L0,4 L2.857,4 Z" fill="rgba(255,255,255,0.16054510290784774)"/><path transform="scale(1.00242215466729 1.091688117165936) rotate(354.2427715964426 1497.2688749040308 154.86503648043703) translate(1497.2688749040308,154.86503648043703)" d="M2.857,4 C4.381,4 6.286,3 6.857,2 L8,0 L5.143,0 C3.619,0 1.714,0.8 1.143,2 L0,4 L2.857,4 Z" fill="rgba(255,255,255,0.18628202704473673)"/><path transform="scale(0.5046779289670849 1.156274313411461) rotate(113.72940124298906 1710.7440777019356 266.8658458911847) translate(1710.7440777019356,266.8658458911847)" d="M4,6 L2.8,3.077 C1.4,-0.429 0,-1.014 0,1.713 C0,2.882 0.8,4.246 2,4.831 L4,6 Z" fill="rgba(255,255,255,0.41268951942716003)"/><path transform="scale(1.2603307674179276 1.1445348725228834) rotate(283.81213826336005 4893.745297987644 339.7810605518163) translate(4893.745297987644,339.7810605518163)" d="M0,5 L1.615,3.846 L3,2.5 L1.615,1.154 L0,0 L0,2.5 Z" fill="rgba(255,255,255,0.520515944976758)"/><path transform="scale(1.010864403115764 1.8749303948244058) rotate(223.31399079778484 782.4026642009762 342.23496971268264) translate(782.4026642009762,342.23496971268264)" d="M2.857,4 C4.381,4 6.286,3 6.857,2 L8,0 L5.143,0 C3.619,0 1.714,0.8 1.143,2 L0,4 L2.857,4 Z" fill="rgba(255,255,255,0.9175255813098462)"/><path transform="scale(0.8487203716891029 1.6120579155048076) rotate(330.1037303469728 2681.3545682686367 47.521441243088546) translate(2681.3545682686367,47.521441243088546)" d="M2.391,3.48892289 C3.913,2.62492289 5,1.54592289 5,0.89792289 C5,-0.82807711 3.043,0.03492289 1.522,2.62492289 L0,4.99992289 L2.391,3.48892289 Z" fill="rgba(255,255,255,0.2379319088098446)"/><path transform="scale(1.9518736988620264 0.6510654707099868) rotate(169.9913945404661 2311.948610908049 355.62813203700296) translate(2311.948610908049,355.62813203700296)" d="M2.391,3.48892289 C3.913,2.62492289 5,1.54592289 5,0.89792289 C5,-0.82807711 3.043,0.03492289 1.522,2.62492289 L0,4.99992289 L2.391,3.48892289 Z" fill="rgba(255,255,255,0.2333063033656877)"/><path transform="scale(1.397714129628715 0.5459263334204019) rotate(218.7241897128809 4426.1887786994885 99.4186354233345) translate(4426.1887786994885,99.4186354233345)" d="M2.5,3 L3.846,1.615 L5,0 L2.5,0 L0,0 L1.154,1.615 Z" fill="rgba(255,255,255,0.3304309083903014)"/><path transform="scale(0.5683566574957172 1.8129757354521097) rotate(65.36263443380915 1323.1310358306637 208.6899573777955) translate(1323.1310358306637,208.6899573777955)" d="M3,9 L5,7.085 L7,5.17 L6,2.489 L5,0 L4.8,3.447 L4.6,6.894 L2.2,5.553 L0,4.213 L1.6,6.511 Z" fill="rgba(255,255,255,0.4205262066993445)"/><path transform="scale(0.9776464664880367 1.6202813663089168) rotate(106.60637768526323 2000.0504153444465 285.96601627459006) translate(2000.0504153444465,285.96601627459006)" d="M2.857,4 C4.381,4 6.286,3 6.857,2 L8,0 L5.143,0 C3.619,0 1.714,0.8 1.143,2 L0,4 L2.857,4 Z" fill="rgba(255,255,255,0.27343871421126686)"/><path transform="scale(0.6555614538773021 1.8069333209387972) rotate(121.99479054660466 3527.072556668148 51.42467672903906) translate(3527.072556668148,51.42467672903906)" d="M0,5 L1.615,3.846 L3,2.5 L1.615,1.154 L0,0 L0,2.5 Z" fill="rgba(255,255,255,0.47812536485889856)"/><path transform="scale(1.6472040386226765 0.7415523172667755) rotate(211.48130120892606 3231.5669605863304 307.30165593961357) translate(3231.5669605863304,307.30165593961357)" d="M0,5 L1.615,3.846 L3,2.5 L1.615,1.154 L0,0 L0,2.5 Z" fill="rgba(255,255,255,0.985031247448312)"/><path transform="scale(0.5029397129274642 1.862527222617719) rotate(101.81526489397046 2379.202803353279 206.35085840808242) translate(2379.202803353279,206.35085840808242)" d="M2.857,4 C4.381,4 6.286,3 6.857,2 L8,0 L5.143,0 C3.619,0 1.714,0.8 1.143,2 L0,4 L2.857,4 Z" fill="rgba(255,255,255,0.47992016952535166)"/><path transform="scale(0.6552642249246444 1.0040143238275543) rotate(217.56413722817328 1411.386235295189 80.0749720954791) translate(1411.386235295189,80.0749720954791)" d="M2.857,4 C4.381,4 6.286,3 6.857,2 L8,0 L5.143,0 C3.619,0 1.714,0.8 1.143,2 L0,4 L2.857,4 Z" fill="rgba(255,255,255,0.39761314544659254)"/><path transform="scale(1.57021299501613 0.5010206514828247) rotate(294.20693229165005 1128.821045695424 162.34469765607184) translate(1128.821045695424,162.34469765607184)" d="M3.238,4 C3.619,4 4,3 4,2 L4,0 L1.905,0 L0,0 L1.143,2 C1.714,3 2.667,4 3.238,4 Z" fill="rgba(255,255,255,0.4232874416858985)"/><path transform="scale(1.8025680505262853 0.7655292513316533) rotate(238.91784762629152 3078.612777803955 376.15687803618493) translate(3078.612777803955,376.15687803618493)" d="M2.857,4 C4.381,4 6.286,3 6.857,2 L8,0 L5.143,0 C3.619,0 1.714,0.8 1.143,2 L0,4 L2.857,4 Z" fill="rgba(255,255,255,0.07842392860282299)"/><path transform="scale(1.4696155577913999 1.6196851371365901) rotate(49.97312562681124 3312.934991444634 116.42596266817363) translate(3312.934991444634,116.42596266817363)" d="M2.5,3 L3.846,1.615 L5,0 L2.5,0 L0,0 L1.154,1.615 Z" fill="rgba(255,255,255,0.5617578208453073)"/><path transform="scale(0.9400434005182697 1.994975775952696) rotate(58.698733029994514 2203.372393849262 102.66630620710026) translate(2203.372393849262,102.66630620710026)" d="M2.857,4 C4.381,4 6.286,3 6.857,2 L8,0 L5.143,0 C3.619,0 1.714,0.8 1.143,2 L0,4 L2.857,4 Z" fill="rgba(255,255,255,0.1531503367321032)"/><path transform="scale(1.242695144286249 1.292382219331143) rotate(68.71282134951763 1302.4379517077057 229.21961936660352) translate(1302.4379517077057,229.21961936660352)" d="M2.391,3.48892289 C3.913,2.62492289 5,1.54592289 5,0.89792289 C5,-0.82807711 3.043,0.03492289 1.522,2.62492289 L0,4.99992289 L2.391,3.48892289 Z" fill="rgba(255,255,255,0.5995815948750072)"/><path transform="scale(0.9545049821766028 1.8653864922019907) rotate(98.116402251891 1492.1292897994997 46.746955010191996) translate(1492.1292897994997,46.746955010191996)" d="M4,6 L2.8,3.077 C1.4,-0.429 0,-1.014 0,1.713 C0,2.882 0.8,4.246 2,4.831 L4,6 Z" fill="rgba(255,255,255,0.8537245555450224)"/><path transform="scale(1.1915688731352039 1.4833099106001426) rotate(242.95601557309502 1349.3771654090435 139.22726195935996) translate(1349.3771654090435,139.22726195935996)" d="M3.238,4 C3.619,4 4,3 4,2 L4,0 L1.905,0 L0,0 L1.143,2 C1.714,3 2.667,4 3.238,4 Z" fill="rgba(255,255,255,0.7242433788855955)"/><path transform="scale(1.7212507691852674 0.6685268665570685) rotate(350.83852716510864 3755.074520181466 126.34803205769185) translate(3755.074520181466,126.34803205769185)" d="M2.857,4 C4.381,4 6.286,3 6.857,2 L8,0 L5.143,0 C3.619,0 1.714,0.8 1.143,2 L0,4 L2.857,4 Z" fill="rgba(255,255,255,0.8179481063972458)"/><path transform="scale(1.9897652469687916 1.2226134386007463) rotate(263.7088785181061 1737.7571176945817 364.08550756915747) translate(1737.7571176945817,364.08550756915747)" d="M2.5,3 L3.846,1.615 L5,0 L2.5,0 L0,0 L1.154,1.615 Z" fill="rgba(255,255,255,0.6969940081386126)"/><path transform="scale(1.2575778838475078 1.7604012078965519) rotate(46.968546824925525 662.3811119426581 112.75873571508887) translate(662.3811119426581,112.75873571508887)" d="M2.857,4 C4.381,4 6.286,3 6.857,2 L8,0 L5.143,0 C3.619,0 1.714,0.8 1.143,2 L0,4 L2.857,4 Z" fill="rgba(255,255,255,0.8188649222465685)"/><path transform="scale(0.7967214755482906 0.8982903754444149) rotate(145.95556160566173 3605.5989925497 142.71903786733643) translate(3605.5989925497,142.71903786733643)" d="M2.391,3.48892289 C3.913,2.62492289 5,1.54592289 5,0.89792289 C5,-0.82807711 3.043,0.03492289 1.522,2.62492289 L0,4.99992289 L2.391,3.48892289 Z" fill="rgba(255,255,255,0.815595140391528)"/><path transform="scale(1.8932986637187539 1.4920695091767953) rotate(215.35434148618705 2998.2156054120924 290.9438530317159) translate(2998.2156054120924,290.9438530317159)" d="M2.391,3.48892289 C3.913,2.62492289 5,1.54592289 5,0.89792289 C5,-0.82807711 3.043,0.03492289 1.522,2.62492289 L0,4.99992289 L2.391,3.48892289 Z" fill="rgba(255,255,255,0.7631254258315356)"/><path transform="scale(0.5765816659978081 1.675603727949547) rotate(321.2777480473959 4723.688600705105 147.33061052592456) translate(4723.688600705105,147.33061052592456)" d="M10,5.949 L10,3.077 L10,0 L8.2,0 C7.4,0 6.6,1.026 6.6,2.256 L6.6,4.513 L3.4,3.282 L0,2.051 L2.4,4.923 L4.8,8 L7.4,6.974 L10,5.949 Z" fill="rgba(255,255,255,0.8536834437957812)"/><path transform="scale(1.373196515037315 0.6560607617721386) rotate(95.26407325538547 3963.8316133173366 263.5631315733472) translate(3963.8316133173366,263.5631315733472)" d="M3,9 L5,7.085 L7,5.17 L6,2.489 L5,0 L4.8,3.447 L4.6,6.894 L2.2,5.553 L0,4.213 L1.6,6.511 Z" fill="rgba(255,255,255,0.23756107887002775)"/><path transform="scale(1.9019519551383197 0.8435783492080399) rotate(20.669954829146462 3937.1265806817178 346.89296895518504) translate(3937.1265806817178,346.89296895518504)" d="M10,5.949 L10,3.077 L10,0 L8.2,0 C7.4,0 6.6,1.026 6.6,2.256 L6.6,4.513 L3.4,3.282 L0,2.051 L2.4,4.923 L4.8,8 L7.4,6.974 L10,5.949 Z" fill="rgba(255,255,255,0.15408583840385925)"/><path transform="scale(1.0550482906903378 1.9133318234473013) rotate(163.33386288868306 2989.2516936777547 380.5029086502527) translate(2989.2516936777547,380.5029086502527)" d="M3.238,4 C3.619,4 4,3 4,2 L4,0 L1.905,0 L0,0 L1.143,2 C1.714,3 2.667,4 3.238,4 Z" fill="rgba(255,255,255,0.8018454305677829)"/><path transform="scale(1.7343560689731814 1.6324196605835959) rotate(205.91925884826532 156.4857421489463 336.3357431835344) translate(156.4857421489463,336.3357431835344)" d="M10,5.949 L10,3.077 L10,0 L8.2,0 C7.4,0 6.6,1.026 6.6,2.256 L6.6,4.513 L3.4,3.282 L0,2.051 L2.4,4.923 L4.8,8 L7.4,6.974 L10,5.949 Z" fill="rgba(255,255,255,0.10596269033409178)"/><path transform="scale(0.8265672249285492 0.691841580785436) rotate(265.1888753501708 2729.6491744925124 480.83301791998656) translate(2729.6491744925124,480.83301791998656)" d="M3.238,4 C3.619,4 4,3 4,2 L4,0 L1.905,0 L0,0 L1.143,2 C1.714,3 2.667,4 3.238,4 Z" fill="rgba(255,255,255,0.11234668066592679)"/><path transform="scale(1.1425301056629262 0.8548074415000907) rotate(98.7836590396422 4718.421135641505 168.1033808912157) translate(4718.421135641505,168.1033808912157)" d="M2.5,3 L3.846,1.615 L5,0 L2.5,0 L0,0 L1.154,1.615 Z" fill="rgba(255,255,255,0.16584693851845134)"/><path transform="scale(1.8473569766444982 1.9822328663584137) rotate(305.98935494509294 1715.4400920994094 448.647236470854) translate(1715.4400920994094,448.647236470854)" d="M1,2 C1.6,2 2,1.6 2,1 C2,0.4 1.6,0 1,0 C0.4,0 0,0.4 0,1 C0,1.6 0.4,2 1,2 Z" fill="rgba(255,255,255,0.5190345423098903)"/><path transform="scale(1.9258375258980072 1.9652459046946793) rotate(332.9613545840118 3035.1722675057167 20.1451233384351) translate(3035.1722675057167,20.1451233384351)" d="M1,2 C1.6,2 2,1.6 2,1 C2,0.4 1.6,0 1,0 C0.4,0 0,0.4 0,1 C0,1.6 0.4,2 1,2 Z" fill="rgba(255,255,255,0.2740052534755435)"/><path transform="scale(1.7836482048506448 1.6070170786284992) rotate(222.272771774385 3031.9815099149873 158.30627365002437) translate(3031.9815099149873,158.30627365002437)" d="M3.238,4 C3.619,4 4,3 4,2 L4,0 L1.905,0 L0,0 L1.143,2 C1.714,3 2.667,4 3.238,4 Z" fill="rgba(255,255,255,0.005749543792131773)"/><path transform="scale(0.8107383427202476 0.7589060611683034) rotate(308.66817394496724 1500.6115883985826 363.2918576889513) translate(1500.6115883985826,363.2918576889513)" d="M2.391,3.48892289 C3.913,2.62492289 5,1.54592289 5,0.89792289 C5,-0.82807711 3.043,0.03492289 1.522,2.62492289 L0,4.99992289 L2.391,3.48892289 Z" fill="rgba(255,255,255,0.8816628959049582)"/><path transform="scale(1.3845141800237122 1.6686064237519505) rotate(203.00956637828767 4332.340608075384 301.730194616586) translate(4332.340608075384,301.730194616586)" d="M3.238,4 C3.619,4 4,3 4,2 L4,0 L1.905,0 L0,0 L1.143,2 C1.714,3 2.667,4 3.238,4 Z" fill="rgba(255,255,255,0.8142259146963033)"/><path transform="scale(0.6442344445178984 0.8901532046206878) rotate(326.75711760456494 4459.984092435161 263.2588031849107) translate(4459.984092435161,263.2588031849107)" d="M2.391,3.48892289 C3.913,2.62492289 5,1.54592289 5,0.89792289 C5,-0.82807711 3.043,0.03492289 1.522,2.62492289 L0,4.99992289 L2.391,3.48892289 Z" fill="rgba(255,255,255,0.7104774749788698)"/><path transform="scale(0.5870585418736645 1.7447166174420894) rotate(46.12862971137172 3332.0631204368033 6.1411327617376665) translate(3332.0631204368033,6.1411327617376665)" d="M3.238,4 C3.619,4 4,3 4,2 L4,0 L1.905,0 L0,0 L1.143,2 C1.714,3 2.667,4 3.238,4 Z" fill="rgba(255,255,255,0.952243515790256)"/><path transform="scale(0.8638165780113516 1.6577875218008042) rotate(141.03242214677812 554.9923696315328 451.3127228113934) translate(554.9923696315328,451.3127228113934)" d="M1,2 C1.6,2 2,1.6 2,1 C2,0.4 1.6,0 1,0 C0.4,0 0,0.4 0,1 C0,1.6 0.4,2 1,2 Z" fill="rgba(255,255,255,0.19570425826706295)"/><path transform="scale(1.9992584514918663 1.6675095723710243) rotate(182.44208578404948 4703.464421652771 489.7706043082195) translate(4703.464421652771,489.7706043082195)" d="M0,5 L1.615,3.846 L3,2.5 L1.615,1.154 L0,0 L0,2.5 Z" fill="rgba(255,255,255,0.6858802140123463)"/><path transform="scale(0.821551214563062 1.1849016372713739) rotate(27.450727778025097 1862.9238726245867 413.4284340188528) translate(1862.9238726245867,413.4284340188528)" d="M2.857,4 C4.381,4 6.286,3 6.857,2 L8,0 L5.143,0 C3.619,0 1.714,0.8 1.143,2 L0,4 L2.857,4 Z" fill="rgba(255,255,255,0.22879744106341193)"/><path transform="scale(1.871572476700655 1.9850599615066504) rotate(175.18697641033606 4871.039915630431 79.39528937444518) translate(4871.039915630431,79.39528937444518)" d="M3,9 L5,7.085 L7,5.17 L6,2.489 L5,0 L4.8,3.447 L4.6,6.894 L2.2,5.553 L0,4.213 L1.6,6.511 Z" fill="rgba(255,255,255,0.1657023328056897)"/><path transform="scale(1.8168480260206143 1.1216987149628395) rotate(200.49456666912886 3497.067777766627 373.4443276952365) translate(3497.067777766627,373.4443276952365)" d="M3,9 L5,7.085 L7,5.17 L6,2.489 L5,0 L4.8,3.447 L4.6,6.894 L2.2,5.553 L0,4.213 L1.6,6.511 Z" fill="rgba(255,255,255,0.9492833248037025)"/><path transform="scale(1.24717091695131 1.2830257602148036) rotate(295.8499785233654 2096.5327801307244 269.79774666070654) translate(2096.5327801307244,269.79774666070654)" d="M1,2 C1.6,2 2,1.6 2,1 C2,0.4 1.6,0 1,0 C0.4,0 0,0.4 0,1 C0,1.6 0.4,2 1,2 Z" fill="rgba(255,255,255,0.21017634149016517)"/><path transform="scale(1.368232732229973 1.5421162025123465) rotate(172.8615204980521 4220.904696180551 32.33689008278584) translate(4220.904696180551,32.33689008278584)" d="M2.857,4 C4.381,4 6.286,3 6.857,2 L8,0 L5.143,0 C3.619,0 1.714,0.8 1.143,2 L0,4 L2.857,4 Z" fill="rgba(255,255,255,0.035922815212731773)"/><path transform="scale(1.4310375827978117 0.9284271138152035) rotate(318.88770995616886 3049.0139422377006 383.7816994845165) translate(3049.0139422377006,383.7816994845165)" d="M3,9 L5,7.085 L7,5.17 L6,2.489 L5,0 L4.8,3.447 L4.6,6.894 L2.2,5.553 L0,4.213 L1.6,6.511 Z" fill="rgba(255,255,255,0.7769859920766209)"/><path transform="scale(1.272160324434593 1.9072418121030301) rotate(315.8291920858811 4562.194877977384 465.58104481448504) translate(4562.194877977384,465.58104481448504)" d="M4,6 L2.8,3.077 C1.4,-0.429 0,-1.014 0,1.713 C0,2.882 0.8,4.246 2,4.831 L4,6 Z" fill="rgba(255,255,255,0.6429697230896836)"/><path transform="scale(1.938391442768244 1.3786770807206554) rotate(158.86724270857292 162.8894329709063 9.667495321859843) translate(162.8894329709063,9.667495321859843)" d="M1,2 C1.6,2 2,1.6 2,1 C2,0.4 1.6,0 1,0 C0.4,0 0,0.4 0,1 C0,1.6 0.4,2 1,2 Z" fill="rgba(255,255,255,0.884882037719924)"/><path transform="scale(0.7863879802311116 1.9355327903947788) rotate(182.20916483492098 1958.918941334411 499.3812724450977) translate(1958.918941334411,499.3812724450977)" d="M3.238,4 C3.619,4 4,3 4,2 L4,0 L1.905,0 L0,0 L1.143,2 C1.714,3 2.667,4 3.238,4 Z" fill="rgba(255,255,255,0.3193022739885911)"/><path transform="scale(0.5196668686078437 1.0973100471463701) rotate(201.3603363643382 2980.1026107309003 254.11667190470433) translate(2980.1026107309003,254.11667190470433)" d="M2.391,3.48892289 C3.913,2.62492289 5,1.54592289 5,0.89792289 C5,-0.82807711 3.043,0.03492289 1.522,2.62492289 L0,4.99992289 L2.391,3.48892289 Z" fill="rgba(255,255,255,0.606856261562446)"/><path transform="scale(0.8867057484812274 1.1835620162085718) rotate(359.5221287565625 4444.745273275899 453.3823469912606) translate(4444.745273275899,453.3823469912606)" d="M3.238,4 C3.619,4 4,3 4,2 L4,0 L1.905,0 L0,0 L1.143,2 C1.714,3 2.667,4 3.238,4 Z" fill="rgba(255,255,255,0.7579112082347084)"/><path transform="scale(1.7123250450695426 1.3519734897287443) rotate(12.173252411460345 2717.8218655171536 144.49656029512548) translate(2717.8218655171536,144.49656029512548)" d="M2.857,4 C4.381,4 6.286,3 6.857,2 L8,0 L5.143,0 C3.619,0 1.714,0.8 1.143,2 L0,4 L2.857,4 Z" fill="rgba(255,255,255,0.933480976693813)"/><path transform="scale(1.937229751463799 1.1519097781515513) rotate(219.16574508696698 2594.5195214242344 67.0592953645891) translate(2594.5195214242344,67.0592953645891)" d="M10,5.949 L10,3.077 L10,0 L8.2,0 C7.4,0 6.6,1.026 6.6,2.256 L6.6,4.513 L3.4,3.282 L0,2.051 L2.4,4.923 L4.8,8 L7.4,6.974 L10,5.949 Z" fill="rgba(255,255,255,0.3824615611496722)"/><path transform="scale(0.6074810704288319 1.488048429686827) rotate(3.2739996492575507 1568.5044766865985 477.0340783528754) translate(1568.5044766865985,477.0340783528754)" d="M2.391,3.48892289 C3.913,2.62492289 5,1.54592289 5,0.89792289 C5,-0.82807711 3.043,0.03492289 1.522,2.62492289 L0,4.99992289 L2.391,3.48892289 Z" fill="rgba(255,255,255,0.9602828799276908)"/><path transform="scale(1.561215091088262 1.3407316193891559) rotate(267.62512992393397 4631.1344423162445 336.9153561725785) translate(4631.1344423162445,336.9153561725785)" d="M3,9 L5,7.085 L7,5.17 L6,2.489 L5,0 L4.8,3.447 L4.6,6.894 L2.2,5.553 L0,4.213 L1.6,6.511 Z" fill="rgba(255,255,255,0.6643619353795187)"/><path transform="scale(1.7425250137755541 1.7344679579436797) rotate(257.1420345517471 1879.8798483163991 108.85268393714853) translate(1879.8798483163991,108.85268393714853)" d="M2.857,4 C4.381,4 6.286,3 6.857,2 L8,0 L5.143,0 C3.619,0 1.714,0.8 1.143,2 L0,4 L2.857,4 Z" fill="rgba(255,255,255,0.016280241397245376)"/><path transform="scale(1.306445873086723 1.0910105272051833) rotate(127.4568865965213 1169.0438473155818 253.62275498161168) translate(1169.0438473155818,253.62275498161168)" d="M3.238,4 C3.619,4 4,3 4,2 L4,0 L1.905,0 L0,0 L1.143,2 C1.714,3 2.667,4 3.238,4 Z" fill="rgba(255,255,255,0.8916094832429498)"/><path transform="scale(1.7653738826623266 1.1039672383021846) rotate(203.89840187244113 1790.788436126517 82.39296587957324) translate(1790.788436126517,82.39296587957324)" d="M2.5,3 L3.846,1.615 L5,0 L2.5,0 L0,0 L1.154,1.615 Z" fill="rgba(255,255,255,0.827402804551187)"/><path transform="scale(0.787897110862489 1.0363876575354558) rotate(69.03921710760726 1235.4024654937268 173.73840240569805) translate(1235.4024654937268,173.73840240569805)" d="M1,2 C1.6,2 2,1.6 2,1 C2,0.4 1.6,0 1,0 C0.4,0 0,0.4 0,1 C0,1.6 0.4,2 1,2 Z" fill="rgba(255,255,255,0.3843692863041026)"/><path transform="scale(1.1033225644523328 1.5547916067885226) rotate(158.53407242871117 4117.558987128376 452.9332125831935) translate(4117.558987128376,452.9332125831935)" d="M2.391,3.48892289 C3.913,2.62492289 5,1.54592289 5,0.89792289 C5,-0.82807711 3.043,0.03492289 1.522,2.62492289 L0,4.99992289 L2.391,3.48892289 Z" fill="rgba(255,255,255,0.13196982415525693)"/><path transform="scale(1.2925247182847786 1.813979614825157) rotate(53.51025241299734 258.9925439097851 492.38007156534667) translate(258.9925439097851,492.38007156534667)" d="M2.5,3 L3.846,1.615 L5,0 L2.5,0 L0,0 L1.154,1.615 Z" fill="rgba(255,255,255,0.9502153803810571)"/><path transform="scale(1.997348927961859 1.864490338895362) rotate(25.298682379021713 3864.296499278047 53.168843881973075) translate(3864.296499278047,53.168843881973075)" d="M4,6 L2.8,3.077 C1.4,-0.429 0,-1.014 0,1.713 C0,2.882 0.8,4.246 2,4.831 L4,6 Z" fill="rgba(255,255,255,0.8741781109743612)"/><path transform="scale(1.017651993236575 0.5633861364910855) rotate(14.287133769412339 1130.6067343664029 322.68126381608573) translate(1130.6067343664029,322.68126381608573)" d="M3.238,4 C3.619,4 4,3 4,2 L4,0 L1.905,0 L0,0 L1.143,2 C1.714,3 2.667,4 3.238,4 Z" fill="rgba(255,255,255,0.544362036627547)"/><path transform="scale(1.7289388280917057 0.9839084822194532) rotate(43.83035609690381 3478.038916401478 214.51290431711567) translate(3478.038916401478,214.51290431711567)" d="M2.5,3 L3.846,1.615 L5,0 L2.5,0 L0,0 L1.154,1.615 Z" fill="rgba(255,255,255,0.9217304579497008)"/><path transform="scale(1.913984522783608 0.613846762370483) rotate(156.85835352821465 3612.888962077686 436.5970223496517) translate(3612.888962077686,436.5970223496517)" d="M3.238,4 C3.619,4 4,3 4,2 L4,0 L1.905,0 L0,0 L1.143,2 C1.714,3 2.667,4 3.238,4 Z" fill="rgba(255,255,255,0.0510155574088329)"/><path transform="scale(1.4781656072588572 1.4338075646096777) rotate(347.4890960071907 2341.168287685753 184.04919768635264) translate(2341.168287685753,184.04919768635264)" d="M4,6 L2.8,3.077 C1.4,-0.429 0,-1.014 0,1.713 C0,2.882 0.8,4.246 2,4.831 L4,6 Z" fill="rgba(255,255,255,0.12303536633573953)"/><path transform="scale(1.8185608108690405 1.7643635912389737) rotate(110.4514132932183 4487.749579231949 261.96220439078286) translate(4487.749579231949,261.96220439078286)" d="M2.857,4 C4.381,4 6.286,3 6.857,2 L8,0 L5.143,0 C3.619,0 1.714,0.8 1.143,2 L0,4 L2.857,4 Z" fill="rgba(255,255,255,0.5054253141428429)"/><path transform="scale(0.9746507985100464 0.5204033830039894) rotate(142.39410849264678 1711.989520737478 340.95898092224417) translate(1711.989520737478,340.95898092224417)" d="M3,9 L5,7.085 L7,5.17 L6,2.489 L5,0 L4.8,3.447 L4.6,6.894 L2.2,5.553 L0,4.213 L1.6,6.511 Z" fill="rgba(255,255,255,0.5172617866694877)"/><path transform="scale(1.9360007830683563 0.8705086741676413) rotate(131.11695915000092 4382.01656916293 197.89302381353892) translate(4382.01656916293,197.89302381353892)" d="M2.5,3 L3.846,1.615 L5,0 L2.5,0 L0,0 L1.154,1.615 Z" fill="rgba(255,255,255,0.5653963419253605)"/><path transform="scale(1.765114028352723 0.521601033278585) rotate(60.224647284620836 3906.6754743231936 217.91566702704003) translate(3906.6754743231936,217.91566702704003)" d="M3.238,4 C3.619,4 4,3 4,2 L4,0 L1.905,0 L0,0 L1.143,2 C1.714,3 2.667,4 3.238,4 Z" fill="rgba(255,255,255,0.8236608722076701)"/><path transform="scale(1.4547051822272867 1.3925324363215381) rotate(320.60619658352533 4574.266631244455 36.19642052300376) translate(4574.266631244455,36.19642052300376)" d="M3,9 L5,7.085 L7,5.17 L6,2.489 L5,0 L4.8,3.447 L4.6,6.894 L2.2,5.553 L0,4.213 L1.6,6.511 Z" fill="rgba(255,255,255,0.3145558884915205)"/><path transform="scale(0.8072621153530836 1.8712290267842722) rotate(302.62145674809994 725.540994207512 179.17157293337394) translate(725.540994207512,179.17157293337394)" d="M3,9 L5,7.085 L7,5.17 L6,2.489 L5,0 L4.8,3.447 L4.6,6.894 L2.2,5.553 L0,4.213 L1.6,6.511 Z" fill="rgba(255,255,255,0.4516127241212109)"/><path transform="scale(1.4252632061692752 1.6696331040459218) rotate(269.93597822281606 1498.1982292430584 99.21592797557344) translate(1498.1982292430584,99.21592797557344)" d="M0,5 L1.615,3.846 L3,2.5 L1.615,1.154 L0,0 L0,2.5 Z" fill="rgba(255,255,255,0.39850529483834585)"/><path transform="scale(1.5644804011732112 1.652690936353363) rotate(11.350227613022685 4599.071072319032 253.41481267543097) translate(4599.071072319032,253.41481267543097)" d="M2.857,4 C4.381,4 6.286,3 6.857,2 L8,0 L5.143,0 C3.619,0 1.714,0.8 1.143,2 L0,4 L2.857,4 Z" fill="rgba(255,255,255,0.46042040983846166)"/><path transform="scale(0.7682744498887764 0.903683076013084) rotate(28.5025473065914 1584.3701650173525 19.595455095258508) translate(1584.3701650173525,19.595455095258508)" d="M1,2 C1.6,2 2,1.6 2,1 C2,0.4 1.6,0 1,0 C0.4,0 0,0.4 0,1 C0,1.6 0.4,2 1,2 Z" fill="rgba(255,255,255,0.31722596373092404)"/><path transform="scale(1.3051235150083305 0.6349273477485302) rotate(354.7479507993292 2311.4324449282963 478.7704242159193) translate(2311.4324449282963,478.7704242159193)" d="M3,9 L5,7.085 L7,5.17 L6,2.489 L5,0 L4.8,3.447 L4.6,6.894 L2.2,5.553 L0,4.213 L1.6,6.511 Z" fill="rgba(255,255,255,0.9698998612951983)"/><path transform="scale(1.7774548259401088 1.227681018876527) rotate(330.54343564496236 2017.6387749443459 288.66321146520124) translate(2017.6387749443459,288.66321146520124)" d="M4,6 L2.8,3.077 C1.4,-0.429 0,-1.014 0,1.713 C0,2.882 0.8,4.246 2,4.831 L4,6 Z" fill="rgba(255,255,255,0.4306125806577956)"/><path transform="scale(0.9861280663050624 1.7040505572451357) rotate(313.7459815501242 1243.0912052273725 182.63930364184745) translate(1243.0912052273725,182.63930364184745)" d="M2.857,4 C4.381,4 6.286,3 6.857,2 L8,0 L5.143,0 C3.619,0 1.714,0.8 1.143,2 L0,4 L2.857,4 Z" fill="rgba(255,255,255,0.7728222877607505)"/><path transform="scale(0.9538121033602011 1.7015196657583918) rotate(356.9859047771488 225.5785030295443 243.8394246892126) translate(225.5785030295443,243.8394246892126)" d="M1,2 C1.6,2 2,1.6 2,1 C2,0.4 1.6,0 1,0 C0.4,0 0,0.4 0,1 C0,1.6 0.4,2 1,2 Z" fill="rgba(255,255,255,0.5350405440424)"/><path transform="scale(0.7880636428829143 1.0919020676219806) rotate(202.71177717309916 2607.930961573922 38.471825141031644) translate(2607.930961573922,38.471825141031644)" d="M3,9 L5,7.085 L7,5.17 L6,2.489 L5,0 L4.8,3.447 L4.6,6.894 L2.2,5.553 L0,4.213 L1.6,6.511 Z" fill="rgba(255,255,255,0.03357020910856523)"/><path transform="scale(0.6111216938085763 1.9706004693276284) rotate(43.12571368922359 3106.2170029492354 0.7877703672350966) translate(3106.2170029492354,0.7877703672350966)" d="M3.238,4 C3.619,4 4,3 4,2 L4,0 L1.905,0 L0,0 L1.143,2 C1.714,3 2.667,4 3.238,4 Z" fill="rgba(255,255,255,0.6024979770626604)"/>
</g>
		<script xmlns="" id="bw-fido2-page-script"/></svg>